<?xml version="1.0" encoding="utf-8"?>
<!-- Generator: Adobe Illustrator 23.0.1, SVG Export Plug-In . SVG Version: 6.00 Build 0)  -->
<svg version="1.1" id="Layer_1" xmlns="http://www.w3.org/2000/svg" xmlns:xlink="http://www.w3.org/1999/xlink" x="0px" y="0px"
	 viewBox="0 0 200.5 73.8" style="enable-background:new 0 0 200.5 73.8;" xml:space="preserve">
<style type="text/css">
	.st0{fill:#FFFFFF;}
</style>
<g>
	<path class="st0" d="M100.1,19.6c3.6-1.3,6-3.8,6-7.9c0-6.2-5.7-8.9-12.9-8.9H85v38.7h10.7c8.1,0,15.2-3.3,15.2-10.7
		C111,24.9,106.6,20.8,100.1,19.6 M95.3,39.3h-4.5V20.6v-2.2V5h3c5.3,0,7.1,2.6,7.1,6.5c0,0.6,0.4,7-4.8,8.2c1.3,0.3,3.8,1.2,5.8,3
		c2.1,1.7,3.1,4.4,3.1,7.5C105,35.6,102,39.3,95.3,39.3"/>
	<path class="st0" d="M3.7,40.2c2.6,1.4,6,2,8.9,2c5,0,13.8-1.8,13.8-10.6c0-6.1-4.4-9.6-11.8-14.5c-3.4-2.4-8-4.8-8-8.8
		C6.7,5,9.7,3,13.9,3s7.5,2,8.3,2.5l-2.1-3.6c-1.4-0.8-4.5-1-6.2-1c-5.6,0-12.1,2.4-12.1,9c0,5.3,4.1,8.2,11,13.2
		C16,25.4,21,29,21,33.4c0,4.1-3.2,6.7-8.4,6.7C6.5,40,2.1,36.4,1,35.4L3.7,40.2z"/>
	<path class="st0" d="M54,42.2c-10.3,0-18.4-8.3-18.4-20c0-11.5,8-20,18.4-20s18.3,8.5,18.3,20C72.4,33.9,64.4,42.2,54,42.2
		 M66.7,22.2c0-10.5-5.1-17.8-12.7-17.8s-12.7,7.4-12.7,17.8C41.4,32.7,46.4,40,54,40S66.7,32.7,66.7,22.2"/>
	<path class="st0" d="M188.9,30.1H174l-4.6,11.4h-2.2L183.3,2l16.2,39.5h-6L188.9,30.1z M174.8,28H188l-6.6-16.1L174.8,28z"/>
	<polygon class="st0" points="150.5,2.8 150.5,18.7 129.8,18.7 129.8,2.8 124.1,2.8 124.1,41.5 129.8,41.5 129.8,20.9 150.5,20.9 
		150.5,41.5 156.1,41.5 156.1,2.8 	"/>
	<path class="st0" d="M23.4,64.8v0.5h-2.2V65c0-1.1-0.9-2.2-2.5-2.2c-2,0-3.1,1.5-3.1,3.4v1.5c0,1.9,1,3.4,3.1,3.4
		c1.6,0,2.5-1,2.5-2.2v-0.4h2.2V69c0,2.1-1.6,4-4.8,4c-3.4,0-5.3-2.2-5.3-5.3v-1.4c0-3.1,2-5.3,5.4-5.3
		C21.9,60.9,23.4,62.7,23.4,64.8"/>
	<path class="st0" d="M38.2,66.3v1.2c0,3.5-2.1,5.4-5.4,5.4s-5.4-1.9-5.4-5.4v-1.2c0-3.5,2.1-5.5,5.4-5.5
		C36.1,60.9,38.2,62.8,38.2,66.3 M29.7,66.3v1.3c0,2.3,1.1,3.5,3.1,3.5s3.1-1.1,3.1-3.5v-1.3c0-2.3-1.1-3.5-3.1-3.5
		S29.7,63.9,29.7,66.3"/>
	<polygon class="st0" points="45,61.2 50.7,69.2 50.7,69.2 50.7,61.2 52.8,61.2 52.8,72.7 50.6,72.7 44.9,64.6 44.9,64.6 44.9,72.7 
		42.8,72.7 42.8,61.2 	"/>
	<path class="st0" d="M67,64.5v0.3h-2.3v-0.3c0-1-0.7-1.8-2.5-1.8c-1.4,0-2.3,0.6-2.3,1.5c0,1,0.7,1.2,2.9,1.8
		c3.3,0.7,4.4,1.5,4.4,3.5c0,2.2-2,3.5-4.8,3.5c-3.3,0-4.9-1.5-4.9-3.7v-0.4h2.3v0.2c0,1.2,0.9,2,2.7,2c1.5,0,2.4-0.6,2.4-1.5
		c0-1-0.6-1.3-3-1.9c-3.1-0.7-4.3-1.5-4.3-3.4c0-2,1.8-3.4,4.7-3.4C65.5,60.9,67,62.5,67,64.5"/>
	<polygon class="st0" points="80.5,61.2 80.5,63.1 76.6,63.1 76.6,72.7 74.3,72.7 74.3,63.1 70.4,63.1 70.4,61.2 	"/>
	<path class="st0" d="M86.9,72.7h-2.3V61.2h5.5c2.6,0,3.9,1.3,3.9,3.3v0.6c0,1.5-0.9,2.7-2.5,3.1l3,4.6H92l-2.8-4.3h-2.4L86.9,72.7
		L86.9,72.7z M86.9,66.6h2.8c1.5,0,2.2-0.6,2.2-1.6v-0.5c0-1-0.6-1.6-2.1-1.6h-2.9V66.6L86.9,66.6z"/>
	<path class="st0" d="M100.8,61.2v7.1c0,1.8,1,2.8,2.7,2.8s2.7-1,2.7-2.8v-7.1h2.2v7c0,3-1.7,4.8-4.9,4.8c-3.2,0-4.9-1.7-4.9-4.8v-7
		C98.6,61.2,100.8,61.2,100.8,61.2z"/>
	<path class="st0" d="M122.8,64.8v0.5h-2.2V65c0-1.1-0.9-2.2-2.6-2.2c-2,0-3.1,1.5-3.1,3.4v1.5c0,1.9,1,3.4,3.1,3.4
		c1.7,0,2.6-1,2.6-2.2v-0.4h2.2V69c0,2.1-1.6,4-4.8,4c-3.4,0-5.3-2.2-5.3-5.3v-1.4c0-3.1,2-5.3,5.4-5.3
		C121.3,60.9,122.8,62.7,122.8,64.8"/>
	<polygon class="st0" points="136.3,61.2 136.3,63.1 132.3,63.1 132.3,72.7 130.1,72.7 130.1,63.1 126.2,63.1 126.2,61.2 	"/>
	<rect x="140.5" y="61.2" class="st0" width="2.3" height="11.6"/>
	<path class="st0" d="M158.3,66.3v1.2c0,3.5-2.1,5.4-5.4,5.4c-3.3,0-5.4-1.9-5.4-5.4v-1.2c0-3.5,2.1-5.5,5.4-5.5
		C156.2,60.9,158.3,62.8,158.3,66.3 M149.8,66.3v1.3c0,2.3,1.1,3.5,3.1,3.5s3.1-1.1,3.1-3.5v-1.3c0-2.3-1.1-3.5-3.1-3.5
		C150.9,62.8,149.8,63.9,149.8,66.3"/>
	<polygon class="st0" points="165.1,61.2 170.8,69.2 170.8,69.2 170.8,61.2 172.9,61.2 172.9,72.7 170.7,72.7 165,64.6 164.9,64.6 
		164.9,72.7 162.9,72.7 162.9,61.2 	"/>
	<path class="st0" d="M187.1,64.5v0.3h-2.3v-0.3c0-1-0.7-1.8-2.6-1.8c-1.4,0-2.3,0.6-2.3,1.5c0,1,0.7,1.2,2.9,1.8
		c3.3,0.7,4.4,1.5,4.4,3.5c0,2.2-2,3.5-4.8,3.5c-3.4,0-4.9-1.5-4.9-3.7v-0.4h2.3v0.2c0,1.2,0.9,2,2.7,2c1.5,0,2.4-0.6,2.4-1.5
		c0-1-0.6-1.3-3-1.9c-3.1-0.7-4.3-1.5-4.3-3.4c0-2,1.8-3.4,4.6-3.4C185.6,60.9,187.1,62.5,187.1,64.5"/>
</g>
</svg>
